Patient4_TMGait_0pt3_01_right_02_GRF.mot
version=1
nRows=72
nColumns=19
inDegrees=no
endheader
time	F1x	F1y	F1z	M1x	M1y	M1z	F2x	F2y	F2z	M2x	M2y	M2z	EC1x	EC1y	EC1z	EC2x	EC2y	EC2z
2.12	-0.53584	753.5596	47.2037	-293.2783	-47.4921	786.9299	-4.4041	14.669	-3.3206	4.8591	3.854	12.2289	-0.0592	0.0182	-0.0073	-0.0462	0.0165	0.9585
2.1386	-0.12592	762.86	48.5095	-296.66	-48.3268	793.9978	-3.3333	10.691	-2.3438	3.5753	2.8299	9.1742	-0.0592	0.0182	-0.0073	-0.0462	0.0165	0.9585
2.1573	0.38298	773.358	50.0083	-300.4727	-49.257	801.943	-2.2251	7.1164	-1.4526	2.4232	1.8309	6.3926	-0.0592	0.0182	-0.0073	-0.0462	0.0165	0.9585
2.1759	0.95677	784.334	51.6351	-304.4313	-50.2419	810.1562	-1.2548	4.273	-0.73635	1.5092	0.98601	4.1632	-0.0592	0.0182	-0.0073	-0.0462	0.0165	0.9585
2.1946	1.5611	794.9287	53.3069	-308.1919	-51.2223	817.8711	-0.50202	2.2275	-0.21858	0.85421	0.34769	2.5493	-0.0592	0.0182	-0.0073	-0.0462	0.0165	0.9585
2.2132	2.1862	804.1692	54.9259	-311.3711	-52.1122	824.1758	0.020564	0.88551	0.11645	0.42631	-0.081813	1.4758	-0.0592	0.0182	-0.0073	-0.0462	0.0165	0.9585
2.2319	2.8483	811.0374	56.3758	-313.5787	-52.7978	828.079	0.33925	0.071508	0.30455	0.16635	-0.33223	0.80008	-0.0592	0.0182	-0.0073	-0.0462	0.0165	0.9585
2.2505	3.5994	814.62	57.5246	-314.478	-53.1378	828.6561	0.49801	-0.42594	0.38541	0.0025885	-0.44624	0.33981	-0.0592	0.0182	-0.0073	-0.0462	0.0165	0.9585
2.2691	4.5386	814.3106	58.2395	-313.8626	-52.9718	825.2524	0.54708	-0.82658	0.39669	-0.14	-0.46849	-0.10828	-0.0592	0.0182	-0.0073	-0.0462	0.0165	0.9585
2.2878	5.7965	809.9668	58.4191	-311.7134	-52.156	817.6665	0.53588	-1.3404	0.37248	-0.33368	-0.44104	-0.73961	-0.0592	0.0182	-0.0073	-0.0462	0.0165	0.9585
2.3064	7.4975	801.9796	58.0274	-308.2156	-50.6121	806.2299	0.50785	-2.1443	0.34104	-0.64032	-0.40363	-1.723	-0.0592	0.0182	-0.0073	-0.0462	0.0165	0.9585
2.3251	9.7392	791.2609	57.1039	-303.7439	-48.3445	791.8004	0.50337	-3.3613	0.32218	-1.1039	-0.3911	-3.1805	-0.0592	0.0182	-0.0073	-0.0462	0.0165	0.9585
2.3437	12.5886	779.1129	55.7498	-298.8081	-45.4305	775.6443	0.56112	-5.0339	0.32815	-1.7385	-0.43171	-5.1511	-0.0592	0.0182	-0.0073	-0.0462	0.0165	0.9585
2.3624	16.074	766.9603	54.1107	-293.948	-42.0098	759.1792	0.71902	-7.0781	0.36379	-2.5113	-0.54455	-7.5343	-0.0592	0.0182	-0.0073	-0.0462	0.0165	0.9585
2.381	20.1743	756.0471	52.3554	-289.6186	-38.2666	743.6768	1.0134	-9.2172	0.42769	-3.3197	-0.73735	-10.0145	-0.0592	0.0182	-0.0073	-0.0462	0.0165	0.9585
2.3996	24.7982	747.1677	50.6606	-286.0929	-34.4208	730.0021	1.4703	-10.9153	0.51659	-3.9651	-1.012	-11.9823	-0.0592	0.0182	-0.0073	-0.0462	0.0165	0.9585
2.4183	29.7722	740.4794	49.1861	-283.3961	-30.7056	718.428	2.0939	-11.2995	0.61845	-4.1232	-1.3504	-12.4484	-0.0592	0.0182	-0.0073	-0.0462	0.0165	0.9585
2.4369	34.8521	735.4432	48.0517	-281.2881	-27.3384	708.5881	2.8482	-9.099	0.7068	-3.3197	-1.6998	-9.9713	-0.0592	0.0182	-0.0073	-0.0462	0.0165	0.9585
2.4556	39.7233	730.9232	47.3176	-279.3037	-24.5026	699.5705	3.6324	-2.6338	0.74075	-0.92709	-1.9665	-2.6413	-0.0592	0.0182	-0.0073	-0.0462	0.0165	0.9585
2.4742	44.0008	725.3367	46.9794	-276.8134	-22.3451	690.0558	4.2531	10.0916	0.65987	3.8006	-2.0046	11.798	-0.0592	0.0182	-0.0073	-0.0462	0.0165	0.9585
2.4929	47.2994	716.8687	46.9479	-273.1087	-20.9296	678.4966	4.3944	31.1338	0.38566	11.6338	-1.6066	35.6608	-0.0592	0.0182	-0.0073	-0.0462	0.0165	0.9585
2.5115	49.2866	703.6606	47.0561	-267.4765	-20.226	663.2838	3.6026	62.1256	-0.17083	23.185	-0.50691	70.7851	-0.0592	0.0182	-0.0073	-0.0462	0.0165	0.9585
2.5301	49.6675	683.9839	47.0697	-259.2681	-20.1304	642.9005	1.2861	103.5135	-1.0928	38.6259	1.5948	117.6724	-0.0592	0.0182	-0.0073	-0.0462	0.0165	0.9585
2.5488	48.2361	656.5388	46.705	-248.0181	-20.4625	616.1784	-3.022	153.7228	-2.4207	57.3707	4.8966	174.5338	-0.0592	0.0182	-0.0073	-0.0462	0.0165	0.9585
2.5674	45.026	620.9197	45.6987	-233.6225	-20.9704	582.6903	-8.9786	208.8483	-4.3312	77.9357	9.4533	236.9179	-0.0592	0.0182	-0.0073	-0.0462	0.0165	0.9585
2.5861	40.4282	578.0731	43.9266	-216.5063	-21.3908	543.1418	-15.6336	263.5452	-7.0681	98.2811	15.1493	298.6905	-0.0592	0.0182	-0.0073	-0.0462	0.0165	0.9585
2.6047	35.1451	530.2996	41.4672	-197.6109	-21.515	499.3836	-22.0066	313.9678	-10.4951	116.9347	21.4491	355.4227	-0.0592	0.0182	-0.0073	-0.0462	0.0165	0.9585
2.6234	29.9795	480.5049	38.5307	-178.1014	-21.2039	453.7962	-27.4341	358.8728	-14.2602	133.4128	27.7168	405.6622	-0.0592	0.0182	-0.0073	-0.0462	0.0165	0.9585
2.642	25.5275	431.1825	35.306	-158.9732	-20.3753	408.4553	-31.5694	398.5754	-18.0039	147.8253	33.4369	449.7461	-0.0592	0.0182	-0.0073	-0.0462	0.0165	0.9585
2.6606	22.0249	383.9039	31.8903	-140.8459	-19.0057	364.7052	-34.309	433.9299	-21.4803	160.4858	38.3162	488.6421	-0.0592	0.0182	-0.0073	-0.0462	0.0165	0.9585
2.6793	19.4057	339.3959	28.3185	-123.9876	-17.1357	323.206	-35.7208	465.8314	-24.6187	171.7247	42.3181	523.382	-0.0592	0.0182	-0.0073	-0.0462	0.0165	0.9585
2.6979	17.4114	297.8783	24.6454	-108.4486	-14.8991	284.2166	-35.9795	495.0055	-27.4867	181.8197	45.5917	554.8134	-0.0592	0.0182	-0.0073	-0.0462	0.0165	0.9585
2.7166	15.7123	259.386	20.9857	-94.1933	-12.5141	247.8617	-35.3497	522.0007	-30.1784	191.0016	48.3432	583.5779	-0.0592	0.0182	-0.0073	-0.0462	0.0165	0.9585
2.7352	14.0253	223.9485	17.4951	-81.1783	-10.2244	214.2596	-34.1359	547.3307	-32.7199	199.5073	50.7155	610.2696	-0.0592	0.0182	-0.0073	-0.0462	0.0165	0.9585
2.7539	12.1703	191.6308	14.3351	-69.3766	-8.2441	183.5445	-32.6131	571.5555	-35.0553	207.6014	52.7455	635.5272	-0.0592	0.0182	-0.0073	-0.0462	0.0165	0.9585
2.7725	10.0737	162.5014	11.6311	-58.7729	-6.715	155.8301	-30.9958	595.1785	-37.1053	215.5255	54.4173	659.9221	-0.0592	0.0182	-0.0073	-0.0462	0.0165	0.9585
2.7911	7.7535	136.5923	9.4452	-49.3503	-5.6911	131.1654	-29.4326	618.4701	-38.8245	223.4187	55.7274	683.7653	-0.0592	0.0182	-0.0073	-0.0462	0.0165	0.9585
2.8098	5.2939	113.8583	7.779	-41.0761	-5.15	109.5089	-28.0087	641.333	-40.2204	231.2656	56.712	706.957	-0.0592	0.0182	-0.0073	-0.0462	0.0165	0.9585
2.8284	2.8091	94.1141	6.5791	-33.8788	-5.0112	90.6721	-26.7387	663.3131	-41.3254	238.9052	57.4088	728.9992	-0.0592	0.0182	-0.0073	-0.0462	0.0165	0.9585
2.8471	0.41951	77.006	5.7436	-27.6357	-5.1489	74.3021	-25.5695	683.7363	-42.1787	246.0861	57.838	749.1462	-0.0592	0.0182	-0.0073	-0.0462	0.0165	0.9585
2.8657	-1.7601	62.0896	5.1414	-22.197	-5.4102	59.9799	-24.4339	701.9219	-42.8211	252.5504	58.014	766.6469	-0.0592	0.0182	-0.0073	-0.0462	0.0165	0.9585
2.8844	-3.6164	48.9553	4.6423	-17.4241	-5.6407	47.3369	-23.2925	717.4376	-43.2826	258.1313	57.9502	781.0295	-0.0592	0.0182	-0.0073	-0.0462	0.0165	0.9585
2.903	-5.0097	37.3168	4.1391	-13.2184	-5.6941	36.1217	-22.1484	730.2551	-43.5881	262.8097	57.6752	792.2667	-0.0592	0.0182	-0.0073	-0.0462	0.0165	0.9585
2.9216	-5.7818	27.0565	3.5598	-9.5358	-5.4472	26.2359	-21.0395	740.7552	-43.7512	266.7157	57.2232	800.7786	-0.0592	0.0182	-0.0073	-0.0462	0.0165	0.9585
2.9403	-5.8186	18.2128	2.8794	-6.3827	-4.8354	17.7215	-20.0175	749.5987	-43.7746	270.0784	56.6242	807.2968	-0.0592	0.0182	-0.0073	-0.0462	0.0165	0.9585
2.9589	-5.1595	10.9313	2.1316	-3.803	-3.9072	10.7125	-19.133	757.5072	-43.6698	273.1451	55.9178	812.6306	-0.0592	0.0182	-0.0073	-0.0462	0.0165	0.9585
2.9776	-4.0936	5.3812	1.413	-1.8491	-2.8578	5.3681	-18.4149	765.0889	-43.4692	276.1165	55.1559	817.4654	-0.0592	0.0182	-0.0073	-0.0462	0.0165	0.9585
2.9962	-2.9529	1.5414	0.81363	-0.50724	-1.8894	1.6736	-17.8603	772.8065	-43.2243	279.1368	54.3948	822.3269	-0.0592	0.0182	-0.0073	-0.0462	0.0165	0.9585
3.0149	-1.9344	-0.82919	0.36613	0.31266	-1.1024	-0.60509	-17.4403	780.9824	-43.0036	282.2988	53.6938	827.589	-0.0592	0.0182	-0.0073	-0.0462	0.0165	0.9585
3.0335	-1.1237	-2.0644	0.065526	0.73181	-0.52471	-1.7941	-17.0966	789.727	-42.8779	285.6177	53.1004	833.3904	-0.0592	0.0182	-0.0073	-0.0462	0.0165	0.9585
3.0521	-0.53722	-2.503	-0.11083	0.87229	-0.14412	-2.2179	-16.7524	798.8309	-42.9016	288.995	52.6387	839.532	-0.0592	0.0182	-0.0073	-0.0462	0.0165	0.9585
3.0708	-0.15475	-2.4413	-0.19199	0.83994	0.071648	-2.1663	-16.3326	807.7181	-43.11	292.2025	52.3182	845.4325	-0.0592	0.0182	-0.0073	-0.0462	0.0165	0.9585
3.0894	0.060466	-2.115	-0.20739	0.71759	0.16261	-1.8697	-15.7748	815.4939	-43.5113	294.9051	52.1253	850.1822	-0.0592	0.0182	-0.0073	-0.0462	0.0165	0.9585
3.1081	0.14699	-1.6969	-0.18402	0.56613	0.1699	-1.4914	-15.0398	821.1353	-44.066	296.7356	52.0064	852.7446	-0.0592	0.0182	-0.0073	-0.0462	0.0165	0.9585
3.1267	0.13947	-1.3091	-0.14224	0.42953	0.1251	-1.1489	-14.1065	823.7433	-44.6841	297.3861	51.8642	852.2071	-0.0592	0.0182	-0.0073	-0.0462	0.0165	0.9585
3.1454	0.065978	-1.0367	-0.095723	0.33898	0.05007	-0.92749	-12.9546	822.7894	-45.2498	296.6943	51.579	848.0225	-0.0592	0.0182	-0.0073	-0.0462	0.0165	0.9585
3.164	-0.053139	-0.94404	-0.052722	0.31704	-0.040109	-0.88886	-11.5599	818.261	-45.6504	294.6899	51.0381	840.1545	-0.0592	0.0182	-0.0073	-0.0462	0.0165	0.9585
3.1826	-0.20238	-1.0813	-0.016908	0.38121	-0.13551	-1.0834	-9.8883	810.6636	-45.8013	291.5885	50.1576	829.0736	-0.0592	0.0182	-0.0073	-0.0462	0.0165	0.9585
3.2013	-0.36783	-1.4886	0.0088164	0.54695	-0.22607	-1.5583	-7.8955	800.8891	-45.6587	287.7416	48.8879	815.622	-0.0592	0.0182	-0.0073	-0.0462	0.0165	0.9585
3.2199	-0.52701	-2.1926	0.020922	0.82499	-0.29972	-2.345	-5.5328	790.0009	-45.2182	283.5596	47.2113	800.8161	-0.0592	0.0182	-0.0073	-0.0462	0.0165	0.9585
3.2386	-0.64175	-3.1866	0.013876	1.2129	-0.33694	-3.4416	-2.7609	779.0146	-44.5134	279.4279	45.1499	785.6343	-0.0592	0.0182	-0.0073	-0.0462	0.0165	0.9585
3.2572	-0.6519	-4.4045	-0.022608	1.6852	-0.30495	-4.7833	0.44503	768.7431	-43.6222	275.6493	42.7719	770.8588	-0.0592	0.0182	-0.0073	-0.0462	0.0165	0.9585
3.2759	-0.47601	-5.6874	-0.10181	2.1795	-0.15608	-6.1994	4.086	759.7519	-42.6446	272.4296	40.1786	757.0363	-0.0592	0.0182	-0.0073	-0.0462	0.0165	0.9585
3.2945	-0.0098124	-6.741	-0.24213	2.5803	0.17344	-7.3668	8.1183	752.3613	-41.6797	269.8795	37.4815	744.4948	-0.0592	0.0182	-0.0073	-0.0462	0.0165	0.9585
3.3131	0.86682	-7.0902	-0.46315	2.7022	0.75405	-7.7605	12.4615	746.6593	-40.8128	268.02	34.7855	733.3586	-0.0592	0.0182	-0.0073	-0.0462	0.0165	0.9585
3.3318	2.2718	-6.0454	-0.7789	2.2744	1.6488	-6.6157	16.9996	742.4708	-40.1115	266.7717	32.1889	723.5217	-0.0592	0.0182	-0.0073	-0.0462	0.0165	0.9585
3.3504	4.2884	-2.6906	-1.1927	0.93827	2.8935	-2.9134	21.5548	739.2476	-39.6278	265.9163	29.7928	714.5596	-0.0592	0.0182	-0.0073	-0.0462	0.0165	0.9585
3.3691	6.9099	4.0729	-1.6904	-1.7315	4.4679	4.5702	25.8993	736.0255	-39.3853	265.0822	27.6857	705.6857	-0.0592	0.0182	-0.0073	-0.0462	0.0165	0.9585
3.3877	9.9547	15.4084	-2.2192	-6.1784	6.2434	17.1312	29.7867	731.4701	-39.3652	263.765	25.9251	695.7891	-0.0592	0.0182	-0.0073	-0.0462	0.0165	0.9585
3.4064	12.9151	32.337	-2.6582	-12.7853	7.8933	35.9126	32.9754	723.9759	-39.4886	261.367	24.5211	683.5212	-0.0592	0.0182	-0.0073	-0.0462	0.0165	0.9585
3.425	14.8627	55.4521	-2.8038	-21.7673	8.8424	61.5992	35.2455	711.8798	-39.6143	257.2729	23.4305	667.4829	-0.0592	0.0182	-0.0073	-0.0462	0.0165	0.9585
3.4436	14.9606	84.9943	-2.381	-33.1921	8.477	94.5021	36.4076	693.7723	-39.5718	250.959	22.5848	646.518	-0.0592	0.0182	-0.0073	-0.0462	0.0165	0.9585
